# 3ds Max Wavefront OBJ Exporter v0.97b - (c)2007 guruware
# File Created: 17.12.2022 19:16:32

mtllib Wall2.mtl

#
# object Box002
#

v  -4.4670 0.0000 10.1191
v  -4.4670 0.0000 9.2758
v  4.4670 0.0000 9.2758
v  4.4670 0.0000 10.1191
v  -3.6005 0.0000 8.4326
v  5.3335 0.0000 8.4326
v  -2.5060 0.0000 7.5893
v  6.4280 0.0000 7.5893
v  -1.7266 0.0000 6.7461
v  7.2073 0.0000 6.7461
v  -1.4057 0.0000 5.9028
v  7.5283 0.0000 5.9028
v  -1.8157 0.0000 5.0596
v  7.1183 0.0000 5.0596
v  -2.2258 0.0000 4.2163
v  6.7082 0.0000 4.2163
v  -2.5936 0.0000 3.3730
v  6.3403 0.0000 3.3730
v  -2.9169 0.0000 2.5298
v  6.0171 0.0000 2.5298
v  -3.3264 0.0000 1.6865
v  5.6076 0.0000 1.6865
v  -3.8257 0.0000 0.8433
v  5.1083 0.0000 0.8433
v  -4.1448 0.0000 0.0000
v  4.7892 0.0000 0.0000
v  -4.6625 0.0000 -0.8433
v  4.2715 0.0000 -0.8433
v  -5.0149 0.0000 -1.6865
v  3.9190 0.0000 -1.6865
v  -5.4328 0.0000 -2.5298
v  3.5012 0.0000 -2.5298
v  -5.7856 0.0000 -3.3730
v  3.1484 0.0000 -3.3730
v  -6.1702 0.0000 -4.2163
v  2.7637 0.0000 -4.2163
v  -6.1702 0.0000 -5.0595
v  2.7637 0.0000 -5.0595
v  -6.1907 0.0000 -5.9028
v  2.7433 0.0000 -5.9028
v  -5.6560 0.0000 -6.7461
v  3.2780 0.0000 -6.7461
v  -5.1475 0.0000 -7.5893
v  3.7865 0.0000 -7.5893
v  -4.6625 0.0000 -8.4326
v  4.2715 0.0000 -8.4326
v  -4.4670 0.0000 -9.2758
v  4.4670 0.0000 -9.2758
v  -4.4670 0.0000 -10.1191
v  4.4670 0.0000 -10.1191
v  -4.4670 0.9116 10.1191
v  4.4670 0.9116 10.1191
v  4.4670 0.9116 9.2758
v  -4.4670 0.9116 9.2758
v  5.3335 0.9116 8.4326
v  -3.6005 0.9116 8.4326
v  6.4280 0.9116 7.5893
v  -2.5060 0.9116 7.5893
v  7.2073 0.9116 6.7461
v  -1.7266 0.9116 6.7461
v  7.5283 0.9116 5.9028
v  -1.4057 0.9116 5.9028
v  7.1183 0.9116 5.0596
v  -1.8157 0.9116 5.0596
v  6.7082 0.9116 4.2163
v  -2.2258 0.9116 4.2163
v  6.3403 0.9116 3.3730
v  -2.5936 0.9116 3.3730
v  6.0171 0.9116 2.5298
v  -2.9169 0.9116 2.5298
v  5.6076 0.9116 1.6865
v  -3.3264 0.9116 1.6865
v  5.1083 0.9116 0.8433
v  -3.8257 0.9116 0.8433
v  4.7892 0.9116 0.0000
v  -4.1448 0.9116 0.0000
v  4.2715 0.9116 -0.8433
v  -4.6625 0.9116 -0.8433
v  3.9190 0.9116 -1.6865
v  -5.0149 0.9116 -1.6865
v  3.5012 0.9116 -2.5298
v  -5.4328 0.9116 -2.5298
v  3.1484 0.9116 -3.3730
v  -5.7856 0.9116 -3.3730
v  2.7637 0.9116 -4.2163
v  -6.1702 0.9116 -4.2163
v  2.7637 0.9116 -5.0595
v  -6.1702 0.9116 -5.0595
v  2.7433 0.9116 -5.9028
v  -6.1907 0.9116 -5.9028
v  3.2780 0.9116 -6.7461
v  -5.6560 0.9116 -6.7461
v  3.7865 0.9116 -7.5893
v  -5.1475 0.9116 -7.5893
v  4.2715 0.9116 -8.4326
v  -4.6625 0.9116 -8.4326
v  4.4670 0.9116 -9.2758
v  -4.4670 0.9116 -9.2758
v  4.4670 0.9116 -10.1191
v  -4.4670 0.9116 -10.1191
# 100 vertices

vn 0.0000 -1.0000 -0.0000
vn 0.0000 1.0000 -0.0000
vn 0.0000 0.0000 1.0000
vn 1.0000 0.0000 -0.0000
vn 0.9213 0.0000 0.3890
vn 0.6550 0.0000 0.7557
vn 0.6747 0.0000 0.7381
vn 0.8500 0.0000 0.5268
vn 0.9990 0.0000 -0.0444
vn 0.8993 0.0000 -0.4373
vn 0.9081 0.0000 -0.4187
vn 0.9254 0.0000 -0.3790
vn 0.9175 0.0000 -0.3978
vn 0.8808 0.0000 -0.4736
vn 0.9012 0.0000 -0.4333
vn 0.8978 0.0000 -0.4405
vn 0.8901 0.0000 -0.4558
vn 0.9098 0.0000 -0.4150
vn 0.9097 0.0000 -0.4152
vn 0.9163 0.0000 -0.4005
vn 0.9772 0.0000 -0.2123
vn 0.9999 0.0000 -0.0121
vn 0.9637 0.0000 0.2671
vn 0.8505 0.0000 0.5260
vn 0.8616 0.0000 0.5075
vn 0.9305 0.0000 0.3662
vn 0.9935 0.0000 0.1136
vn 0.0000 0.0000 -1.0000
vn -1.0000 0.0000 -0.0000
vn -0.9935 0.0000 -0.1136
vn -0.9305 0.0000 -0.3662
vn -0.8616 0.0000 -0.5075
vn -0.8505 0.0000 -0.5260
vn -0.9637 0.0000 -0.2671
vn -0.9999 0.0000 0.0121
vn -0.9772 0.0000 0.2123
vn -0.9163 0.0000 0.4005
vn -0.9097 0.0000 0.4152
vn -0.9098 0.0000 0.4150
vn -0.8901 0.0000 0.4558
vn -0.8978 0.0000 0.4405
vn -0.9012 0.0000 0.4333
vn -0.8808 0.0000 0.4736
vn -0.9175 0.0000 0.3978
vn -0.9254 0.0000 0.3790
vn -0.9081 0.0000 0.4187
vn -0.8993 0.0000 0.4373
vn -0.9990 0.0000 0.0444
vn -0.8500 0.0000 -0.5268
vn -0.6747 0.0000 -0.7381
vn -0.6550 0.0000 -0.7557
vn -0.9213 0.0000 -0.3890
# 52 vertex normals

vt 1.0000 0.0000 0.0000
vt 1.0000 0.0417 0.0000
vt 0.0000 0.0417 0.0000
vt 0.0000 0.0000 0.0000
vt 1.0000 0.0833 0.0000
vt 0.0000 0.0833 0.0000
vt 1.0000 0.1250 0.0000
vt 0.0000 0.1250 0.0000
vt 1.0000 0.1667 0.0000
vt 0.0000 0.1667 0.0000
vt 1.0000 0.2083 0.0000
vt 0.0000 0.2083 0.0000
vt 1.0000 0.2500 0.0000
vt 0.0000 0.2500 0.0000
vt 1.0000 0.2917 0.0000
vt 0.0000 0.2917 0.0000
vt 1.0000 0.3333 0.0000
vt 0.0000 0.3333 0.0000
vt 1.0000 0.3750 0.0000
vt 0.0000 0.3750 0.0000
vt 1.0000 0.4167 0.0000
vt 0.0000 0.4167 0.0000
vt 1.0000 0.4583 0.0000
vt 0.0000 0.4583 0.0000
vt 1.0000 0.5000 0.0000
vt 0.0000 0.5000 0.0000
vt 1.0000 0.5417 0.0000
vt 0.0000 0.5417 0.0000
vt 1.0000 0.5833 0.0000
vt 0.0000 0.5833 0.0000
vt 1.0000 0.6250 0.0000
vt 0.0000 0.6250 0.0000
vt 1.0000 0.6667 0.0000
vt 0.0000 0.6667 0.0000
vt 1.0000 0.7083 0.0000
vt 0.0000 0.7083 0.0000
vt 1.0000 0.7500 0.0000
vt 0.0000 0.7500 0.0000
vt 1.0000 0.7917 0.0000
vt 0.0000 0.7917 0.0000
vt 1.0000 0.8333 0.0000
vt 0.0000 0.8333 0.0000
vt 1.0000 0.8750 0.0000
vt 0.0000 0.8750 0.0000
vt 1.0000 0.9167 0.0000
vt 0.0000 0.9167 0.0000
vt 1.0000 0.9583 0.0000
vt 0.0000 0.9583 0.0000
vt 1.0000 1.0000 0.0000
vt 0.0000 1.0000 0.0000
vt 0.0417 0.0000 0.0000
vt 0.0417 1.0000 0.0000
vt 0.0833 0.0000 0.0000
vt 0.0833 1.0000 0.0000
vt 0.1250 0.0000 0.0000
vt 0.1250 1.0000 0.0000
vt 0.1667 0.0000 0.0000
vt 0.1667 1.0000 0.0000
vt 0.2083 0.0000 0.0000
vt 0.2083 1.0000 0.0000
vt 0.2500 0.0000 0.0000
vt 0.2500 1.0000 0.0000
vt 0.2917 0.0000 0.0000
vt 0.2917 1.0000 0.0000
vt 0.3333 0.0000 0.0000
vt 0.3333 1.0000 0.0000
vt 0.3750 0.0000 0.0000
vt 0.3750 1.0000 0.0000
vt 0.4167 0.0000 0.0000
vt 0.4167 1.0000 0.0000
vt 0.4583 0.0000 0.0000
vt 0.4583 1.0000 0.0000
vt 0.5000 0.0000 0.0000
vt 0.5000 1.0000 0.0000
vt 0.5417 0.0000 0.0000
vt 0.5417 1.0000 0.0000
vt 0.5833 0.0000 0.0000
vt 0.5833 1.0000 0.0000
vt 0.6250 0.0000 0.0000
vt 0.6250 1.0000 0.0000
vt 0.6667 0.0000 0.0000
vt 0.6667 1.0000 0.0000
vt 0.7083 0.0000 0.0000
vt 0.7083 1.0000 0.0000
vt 0.7500 0.0000 0.0000
vt 0.7500 1.0000 0.0000
vt 0.7917 0.0000 0.0000
vt 0.7917 1.0000 0.0000
vt 0.8333 0.0000 0.0000
vt 0.8333 1.0000 0.0000
vt 0.8750 0.0000 0.0000
vt 0.8750 1.0000 0.0000
vt 0.9167 0.0000 0.0000
vt 0.9167 1.0000 0.0000
vt 0.9583 0.0000 0.0000
vt 0.9583 1.0000 0.0000
# 96 texture coords

o Box002
g Box002
usemtl wire_177027088
s 2
f 1/1/1 2/2/1 3/3/1 
f 3/3/1 4/4/1 1/1/1 
f 2/2/1 5/5/1 6/6/1 
f 6/6/1 3/3/1 2/2/1 
f 5/5/1 7/7/1 8/8/1 
f 8/8/1 6/6/1 5/5/1 
f 7/7/1 9/9/1 10/10/1 
f 10/10/1 8/8/1 7/7/1 
f 9/9/1 11/11/1 12/12/1 
f 12/12/1 10/10/1 9/9/1 
f 11/11/1 13/13/1 14/14/1 
f 14/14/1 12/12/1 11/11/1 
f 13/13/1 15/15/1 16/16/1 
f 16/16/1 14/14/1 13/13/1 
f 15/15/1 17/17/1 18/18/1 
f 18/18/1 16/16/1 15/15/1 
f 17/17/1 19/19/1 20/20/1 
f 20/20/1 18/18/1 17/17/1 
f 19/19/1 21/21/1 22/22/1 
f 22/22/1 20/20/1 19/19/1 
f 21/21/1 23/23/1 24/24/1 
f 24/24/1 22/22/1 21/21/1 
f 23/23/1 25/25/1 26/26/1 
f 26/26/1 24/24/1 23/23/1 
f 25/25/1 27/27/1 28/28/1 
f 28/28/1 26/26/1 25/25/1 
f 27/27/1 29/29/1 30/30/1 
f 30/30/1 28/28/1 27/27/1 
f 29/29/1 31/31/1 32/32/1 
f 32/32/1 30/30/1 29/29/1 
f 31/31/1 33/33/1 34/34/1 
f 34/34/1 32/32/1 31/31/1 
f 33/33/1 35/35/1 36/36/1 
f 36/36/1 34/34/1 33/33/1 
f 35/35/1 37/37/1 38/38/1 
f 38/38/1 36/36/1 35/35/1 
f 37/37/1 39/39/1 40/40/1 
f 40/40/1 38/38/1 37/37/1 
f 39/39/1 41/41/1 42/42/1 
f 42/42/1 40/40/1 39/39/1 
f 41/41/1 43/43/1 44/44/1 
f 44/44/1 42/42/1 41/41/1 
f 43/43/1 45/45/1 46/46/1 
f 46/46/1 44/44/1 43/43/1 
f 45/45/1 47/47/1 48/48/1 
f 48/48/1 46/46/1 45/45/1 
f 47/47/1 49/49/1 50/50/1 
f 50/50/1 48/48/1 47/47/1 
s 4
f 51/4/2 52/1/2 53/2/2 
f 53/2/2 54/3/2 51/4/2 
f 54/3/2 53/2/2 55/5/2 
f 55/5/2 56/6/2 54/3/2 
f 56/6/2 55/5/2 57/7/2 
f 57/7/2 58/8/2 56/6/2 
f 58/8/2 57/7/2 59/9/2 
f 59/9/2 60/10/2 58/8/2 
f 60/10/2 59/9/2 61/11/2 
f 61/11/2 62/12/2 60/10/2 
f 62/12/2 61/11/2 63/13/2 
f 63/13/2 64/14/2 62/12/2 
f 64/14/2 63/13/2 65/15/2 
f 65/15/2 66/16/2 64/14/2 
f 66/16/2 65/15/2 67/17/2 
f 67/17/2 68/18/2 66/16/2 
f 68/18/2 67/17/2 69/19/2 
f 69/19/2 70/20/2 68/18/2 
f 70/20/2 69/19/2 71/21/2 
f 71/21/2 72/22/2 70/20/2 
f 72/22/2 71/21/2 73/23/2 
f 73/23/2 74/24/2 72/22/2 
f 74/24/2 73/23/2 75/25/2 
f 75/25/2 76/26/2 74/24/2 
f 76/26/2 75/25/2 77/27/2 
f 77/27/2 78/28/2 76/26/2 
f 78/28/2 77/27/2 79/29/2 
f 79/29/2 80/30/2 78/28/2 
f 80/30/2 79/29/2 81/31/2 
f 81/31/2 82/32/2 80/30/2 
f 82/32/2 81/31/2 83/33/2 
f 83/33/2 84/34/2 82/32/2 
f 84/34/2 83/33/2 85/35/2 
f 85/35/2 86/36/2 84/34/2 
f 86/36/2 85/35/2 87/37/2 
f 87/37/2 88/38/2 86/36/2 
f 88/38/2 87/37/2 89/39/2 
f 89/39/2 90/40/2 88/38/2 
f 90/40/2 89/39/2 91/41/2 
f 91/41/2 92/42/2 90/40/2 
f 92/42/2 91/41/2 93/43/2 
f 93/43/2 94/44/2 92/42/2 
f 94/44/2 93/43/2 95/45/2 
f 95/45/2 96/46/2 94/44/2 
f 96/46/2 95/45/2 97/47/2 
f 97/47/2 98/48/2 96/46/2 
f 98/48/2 97/47/2 99/49/2 
f 99/49/2 100/50/2 98/48/2 
s 8
f 1/4/3 4/1/3 52/49/3 
f 52/49/3 51/50/3 1/4/3 
s 16
f 4/4/4 3/51/5 53/52/5 
f 53/52/5 52/50/4 4/4/4 
f 3/51/5 6/53/6 55/54/6 
f 55/54/6 53/52/5 3/51/5 
f 6/53/6 8/55/7 57/56/7 
f 57/56/7 55/54/6 6/53/6 
f 8/55/7 10/57/8 59/58/8 
f 59/58/8 57/56/7 8/55/7 
f 10/57/8 12/59/9 61/60/9 
f 61/60/9 59/58/8 10/57/8 
f 12/59/9 14/61/10 63/62/10 
f 63/62/10 61/60/9 12/59/9 
f 14/61/10 16/63/11 65/64/11 
f 65/64/11 63/62/10 14/61/10 
f 16/63/11 18/65/12 67/66/12 
f 67/66/12 65/64/11 16/63/11 
f 18/65/12 20/67/13 69/68/13 
f 69/68/13 67/66/12 18/65/12 
f 20/67/13 22/69/14 71/70/14 
f 71/70/14 69/68/13 20/67/13 
f 22/69/14 24/71/15 73/72/15 
f 73/72/15 71/70/14 22/69/14 
f 24/71/15 26/73/16 75/74/16 
f 75/74/16 73/72/15 24/71/15 
f 26/73/16 28/75/17 77/76/17 
f 77/76/17 75/74/16 26/73/16 
f 28/75/17 30/77/18 79/78/18 
f 79/78/18 77/76/17 28/75/17 
f 30/77/18 32/79/19 81/80/19 
f 81/80/19 79/78/18 30/77/18 
f 32/79/19 34/81/20 83/82/20 
f 83/82/20 81/80/19 32/79/19 
f 34/81/20 36/83/21 85/84/21 
f 85/84/21 83/82/20 34/81/20 
f 36/83/21 38/85/22 87/86/22 
f 87/86/22 85/84/21 36/83/21 
f 38/85/22 40/87/23 89/88/23 
f 89/88/23 87/86/22 38/85/22 
f 40/87/23 42/89/24 91/90/24 
f 91/90/24 89/88/23 40/87/23 
f 42/89/24 44/91/25 93/92/25 
f 93/92/25 91/90/24 42/89/24 
f 44/91/25 46/93/26 95/94/26 
f 95/94/26 93/92/25 44/91/25 
f 46/93/26 48/95/27 97/96/27 
f 97/96/27 95/94/26 46/93/26 
f 48/95/27 50/1/4 99/49/4 
f 99/49/4 97/96/27 48/95/27 
s 32
f 50/4/28 49/1/28 100/49/28 
f 100/49/28 99/50/28 50/4/28 
s 64
f 49/4/29 47/51/30 98/52/30 
f 98/52/30 100/50/29 49/4/29 
f 47/51/30 45/53/31 96/54/31 
f 96/54/31 98/52/30 47/51/30 
f 45/53/31 43/55/32 94/56/32 
f 94/56/32 96/54/31 45/53/31 
f 43/55/32 41/57/33 92/58/33 
f 92/58/33 94/56/32 43/55/32 
f 41/57/33 39/59/34 90/60/34 
f 90/60/34 92/58/33 41/57/33 
f 39/59/34 37/61/35 88/62/35 
f 88/62/35 90/60/34 39/59/34 
f 37/61/35 35/63/36 86/64/36 
f 86/64/36 88/62/35 37/61/35 
f 35/63/36 33/65/37 84/66/37 
f 84/66/37 86/64/36 35/63/36 
f 33/65/37 31/67/38 82/68/38 
f 82/68/38 84/66/37 33/65/37 
f 31/67/38 29/69/39 80/70/39 
f 80/70/39 82/68/38 31/67/38 
f 29/69/39 27/71/40 78/72/40 
f 78/72/40 80/70/39 29/69/39 
f 27/71/40 25/73/41 76/74/41 
f 76/74/41 78/72/40 27/71/40 
f 25/73/41 23/75/42 74/76/42 
f 74/76/42 76/74/41 25/73/41 
f 23/75/42 21/77/43 72/78/43 
f 72/78/43 74/76/42 23/75/42 
f 21/77/43 19/79/44 70/80/44 
f 70/80/44 72/78/43 21/77/43 
f 19/79/44 17/81/45 68/82/45 
f 68/82/45 70/80/44 19/79/44 
f 17/81/45 15/83/46 66/84/46 
f 66/84/46 68/82/45 17/81/45 
f 15/83/46 13/85/47 64/86/47 
f 64/86/47 66/84/46 15/83/46 
f 13/85/47 11/87/48 62/88/48 
f 62/88/48 64/86/47 13/85/47 
f 11/87/48 9/89/49 60/90/49 
f 60/90/49 62/88/48 11/87/48 
f 9/89/49 7/91/50 58/92/50 
f 58/92/50 60/90/49 9/89/49 
f 7/91/50 5/93/51 56/94/51 
f 56/94/51 58/92/50 7/91/50 
f 5/93/51 2/95/52 54/96/52 
f 54/96/52 56/94/51 5/93/51 
f 2/95/52 1/1/29 51/49/29 
f 51/49/29 54/96/52 2/95/52 
# 196 faces

