# 3ds Max Wavefront OBJ Exporter v0.99 - (c)2007 guruware
# ÆÄÀÏ »ý¼ºµÊ: 30.11.2022 14:47:13

mtllib Floor.mtl

#
# object Plane001
#

v  -6.2500 0.0000 -10.0000
v  -6.2500 0.0000 10.0000
v  6.2500 0.0000 -10.0000
v  6.2500 0.0000 10.0000
# 4 vertices

vn 0.0000 1.0000 -0.0000
# 1 vertex normals

vt 0.0000 1.0000 0.0000
vt 0.0000 0.0000 0.0000
vt 1.0000 1.0000 0.0000
vt 1.0000 0.0000 0.0000
# 4 texture coords

o Plane001
g Plane001
usemtl wire_027177148
s 1
f 1/1/1 2/2/1 3/3/1 
f 4/4/1 3/3/1 2/2/1 
# 2 faces

